<svg width="271" height="324" viewBox="0 0 271 324" fill="none" xmlns="http://www.w3.org/2000/svg">
<rect width="270" height="324" rx="27" fill="white"/>
<rect x="39" y="41" width="193" height="193" stroke="black" stroke-width="10"/>
<path d="M44.5156 296.336C44.5156 295.961 44.6445 295.457 44.9023 294.824C45.1602 294.168 45.4883 293.582 45.8867 293.066C46.2852 292.551 46.7188 292.211 47.1875 292.047C47.6797 291.883 48.1484 292.094 48.5938 292.68C49.3672 294.086 50.0703 295.188 50.7031 295.984C51.3594 296.781 52.0391 297.379 52.7422 297.777C53.4453 298.152 54.2188 298.387 55.0625 298.48C55.9297 298.574 56.9609 298.621 58.1562 298.621C59.6094 298.621 61.0977 298.375 62.6211 297.883C64.1445 297.391 65.5273 296.77 66.7695 296.02C68.0352 295.27 69.0664 294.449 69.8633 293.559C70.6602 292.668 71.0586 291.836 71.0586 291.062C71.0586 290.5 70.8125 289.938 70.3203 289.375C69.8281 288.812 69.1484 288.273 68.2812 287.758C67.4375 287.242 66.4414 286.762 65.293 286.316C64.1445 285.871 62.9258 285.496 61.6367 285.191C60.1602 284.98 58.6484 284.746 57.1016 284.488C55.5547 284.207 54.043 283.879 52.5664 283.504C51.0898 283.105 49.707 282.613 48.418 282.027C47.1289 281.441 45.9922 280.727 45.0078 279.883C44.0234 279.039 43.25 278.043 42.6875 276.895C42.125 275.723 41.8438 274.34 41.8438 272.746C41.8438 270.918 42.125 269.219 42.6875 267.648C43.25 266.078 44.0117 264.648 44.9727 263.359C45.957 262.07 47.1055 260.934 48.418 259.949C49.7305 258.941 51.1367 258.098 52.6367 257.418C54.1602 256.738 55.7305 256.223 57.3477 255.871C58.9883 255.52 60.6172 255.344 62.2344 255.344C63.9219 255.344 65.4453 255.578 66.8047 256.047C68.1875 256.516 69.3594 257.148 70.3203 257.945C71.2812 258.742 72.0195 259.656 72.5352 260.688C73.0742 261.695 73.3438 262.75 73.3438 263.852C73.3438 264.438 73.332 265.105 73.3086 265.855C73.2852 266.605 73.1797 267.32 72.9922 268C72.8047 268.656 72.5117 269.219 72.1133 269.688C71.7148 270.156 71.1289 270.391 70.3555 270.391C69.8867 270.391 69.5234 270.297 69.2656 270.109C69.0078 269.922 68.8203 269.688 68.7031 269.406C68.5859 269.125 68.5156 268.82 68.4922 268.492C68.4688 268.164 68.457 267.859 68.457 267.578C68.457 266.336 68.293 265.316 67.9648 264.52C67.6367 263.723 67.1562 263.102 66.5234 262.656C65.9141 262.188 65.1523 261.871 64.2383 261.707C63.3477 261.52 62.3281 261.426 61.1797 261.426C60.3828 261.426 59.5156 261.566 58.5781 261.848C57.6406 262.129 56.6914 262.516 55.7305 263.008C54.7695 263.5 53.832 264.086 52.918 264.766C52.0273 265.422 51.2305 266.16 50.5273 266.98C49.8242 267.777 49.2617 268.633 48.8398 269.547C48.418 270.438 48.207 271.352 48.207 272.289C48.207 273.391 48.582 274.316 49.332 275.066C50.1055 275.793 51.1016 276.402 52.3203 276.895C53.5625 277.387 54.957 277.797 56.5039 278.125C58.0742 278.453 59.668 278.758 61.2852 279.039C62.5977 279.273 63.9102 279.543 65.2227 279.848C66.5586 280.152 67.8242 280.516 69.0195 280.938C70.2148 281.359 71.3281 281.863 72.3594 282.449C73.3906 283.035 74.2812 283.738 75.0312 284.559C75.8047 285.355 76.4023 286.281 76.8242 287.336C77.2695 288.391 77.4922 289.598 77.4922 290.957C77.4922 292.621 77.1172 294.109 76.3672 295.422C75.6406 296.734 74.6797 297.895 73.4844 298.902C72.2891 299.91 70.9414 300.777 69.4414 301.504C67.9648 302.23 66.4766 302.828 64.9766 303.297C63.4766 303.742 62.0352 304.07 60.6523 304.281C59.293 304.492 58.1445 304.598 57.207 304.598C56.4805 304.598 55.6602 304.562 54.7461 304.492C53.832 304.422 52.9062 304.281 51.9688 304.07C51.0312 303.883 50.1172 303.602 49.2266 303.227C48.3359 302.852 47.5391 302.359 46.8359 301.75C46.1328 301.141 45.5703 300.391 45.1484 299.5C44.7266 298.609 44.5156 297.555 44.5156 296.336ZM86.5273 280.059C86.5273 277.035 86.8555 274.316 87.5117 271.902C88.1914 269.488 89.1172 267.367 90.2891 265.539C91.4844 263.688 92.8906 262.105 94.5078 260.793C96.1484 259.48 97.918 258.402 99.8164 257.559C101.715 256.715 103.707 256.105 105.793 255.73C107.902 255.332 110.023 255.133 112.156 255.133C115.836 255.133 119.141 255.73 122.07 256.926C125 258.121 127.484 259.844 129.523 262.094C131.562 264.32 133.121 267.051 134.199 270.285C135.277 273.496 135.816 277.129 135.816 281.184C135.816 283.527 135.5 285.742 134.867 287.828C134.258 289.914 133.402 291.836 132.301 293.594C131.199 295.352 129.887 296.934 128.363 298.34C126.863 299.723 125.211 300.906 123.406 301.891C121.602 302.875 119.691 303.625 117.676 304.141C115.66 304.656 113.609 304.914 111.523 304.914C109.297 304.914 107.129 304.562 105.02 303.859C102.934 303.156 100.965 302.195 99.1133 300.977C97.2617 299.758 95.5625 298.34 94.0156 296.723C92.4688 295.105 91.1445 293.371 90.043 291.52C88.9414 289.668 88.0742 287.77 87.4414 285.824C86.832 283.855 86.5273 281.934 86.5273 280.059ZM92.9258 279.004C92.9258 280.598 93.1484 282.203 93.5938 283.82C94.0625 285.414 94.707 286.949 95.5273 288.426C96.3711 289.902 97.3555 291.285 98.4805 292.574C99.6055 293.84 100.836 294.953 102.172 295.914C103.531 296.852 104.961 297.602 106.461 298.164C107.961 298.703 109.496 298.973 111.066 298.973C113.551 298.973 115.906 298.574 118.133 297.777C120.383 296.957 122.352 295.762 124.039 294.191C125.727 292.621 127.062 290.676 128.047 288.355C129.031 286.035 129.523 283.363 129.523 280.34C129.523 277.387 129.102 274.727 128.258 272.359C127.438 269.992 126.289 267.977 124.812 266.312C123.336 264.648 121.59 263.371 119.574 262.48C117.559 261.59 115.367 261.145 113 261.145C110.445 261.145 107.961 261.508 105.547 262.234C103.156 262.961 101.023 264.062 99.1484 265.539C97.2734 267.016 95.7617 268.879 94.6133 271.129C93.4883 273.355 92.9258 275.98 92.9258 279.004ZM148.613 299.113C148.613 298.434 148.672 297.766 148.789 297.109C148.906 296.453 148.965 295.762 148.965 295.035C148.965 294.52 148.906 293.805 148.789 292.891C148.695 291.953 148.578 290.898 148.438 289.727C148.297 288.555 148.133 287.301 147.945 285.965C147.758 284.605 147.594 283.258 147.453 281.922C147.312 280.562 147.184 279.238 147.066 277.949C146.973 276.66 146.926 275.488 146.926 274.434C146.926 273.52 146.938 272.488 146.961 271.34C146.984 270.168 147.066 269.02 147.207 267.895C147.371 266.746 147.617 265.691 147.945 264.73C148.297 263.746 148.789 262.973 149.422 262.41C151.859 260.277 154.496 258.578 157.332 257.312C160.168 256.047 163.25 255.414 166.578 255.414C168.195 255.414 169.801 255.625 171.395 256.047C172.988 256.469 174.43 257.125 175.719 258.016C177.008 258.906 178.051 260.055 178.848 261.461C179.645 262.844 180.043 264.496 180.043 266.418C180.043 267.848 179.727 269.102 179.094 270.18C178.484 271.258 177.711 272.195 176.773 272.992C175.836 273.766 174.805 274.434 173.68 274.996C172.578 275.535 171.523 275.98 170.516 276.332C171.523 276.355 172.625 276.52 173.82 276.824C175.016 277.105 176.176 277.48 177.301 277.949C178.426 278.418 179.445 278.957 180.359 279.566C181.273 280.176 181.953 280.82 182.398 281.5C183.266 282.883 183.945 284.371 184.438 285.965C184.953 287.559 185.328 289.258 185.562 291.062C185.82 292.867 185.973 294.766 186.02 296.758C186.09 298.75 186.125 300.836 186.125 303.016C186.125 303.531 185.984 304 185.703 304.422C185.445 304.844 185.129 305.207 184.754 305.512C184.379 305.816 183.969 306.051 183.523 306.215C183.102 306.402 182.738 306.496 182.434 306.496C181.73 306.496 181.168 306.355 180.746 306.074C180.348 305.816 180.043 305.453 179.832 304.984C179.621 304.516 179.48 303.977 179.41 303.367C179.363 302.734 179.34 302.066 179.34 301.363C179.34 300.637 179.387 299.91 179.48 299.184C179.598 298.434 179.656 297.59 179.656 296.652C179.656 295.949 179.633 295.199 179.586 294.402C179.539 293.582 179.457 292.785 179.34 292.012C179.246 291.215 179.117 290.453 178.953 289.727C178.789 288.977 178.59 288.309 178.355 287.723C177.746 286.293 176.867 285.145 175.719 284.277C174.594 283.387 173.316 282.695 171.887 282.203C170.48 281.711 169.004 281.383 167.457 281.219C165.91 281.055 164.422 280.973 162.992 280.973C162.641 280.973 162.066 281.031 161.27 281.148C160.496 281.266 159.664 281.43 158.773 281.641C157.883 281.852 157.016 282.109 156.172 282.414C155.352 282.719 154.719 283.059 154.273 283.434C154.273 284.629 154.332 285.906 154.449 287.266C154.566 288.602 154.719 289.961 154.906 291.344C155.094 292.727 155.316 294.086 155.574 295.422C155.832 296.734 156.09 297.965 156.348 299.113C156.371 299.23 156.383 299.336 156.383 299.43C156.406 299.523 156.418 299.629 156.418 299.746C156.418 300.215 156.301 300.648 156.066 301.047C155.832 301.445 155.516 301.785 155.117 302.066C154.742 302.348 154.297 302.57 153.781 302.734C153.266 302.875 152.715 302.945 152.129 302.945C151.66 302.945 151.203 302.828 150.758 302.594C150.336 302.359 149.961 302.066 149.633 301.715C149.328 301.34 149.082 300.93 148.895 300.484C148.707 300.016 148.613 299.559 148.613 299.113ZM153.535 276.227C154.191 276.203 155.141 276.074 156.383 275.84C157.625 275.582 158.984 275.242 160.461 274.82C161.961 274.398 163.484 273.906 165.031 273.344C166.602 272.781 168.02 272.172 169.285 271.516C170.574 270.859 171.617 270.168 172.414 269.441C173.234 268.691 173.645 267.941 173.645 267.191C173.645 265.949 173.422 264.941 172.977 264.168C172.555 263.371 171.992 262.75 171.289 262.305C170.586 261.859 169.789 261.555 168.898 261.391C168.031 261.227 167.164 261.145 166.297 261.145C165.5 261.145 164.621 261.215 163.66 261.355C162.699 261.496 161.738 261.719 160.777 262.023C159.816 262.305 158.879 262.656 157.965 263.078C157.074 263.5 156.277 263.98 155.574 264.52C154.871 265.059 154.309 265.668 153.887 266.348C153.465 267.027 153.254 267.754 153.254 268.527C153.254 269.91 153.266 271.223 153.289 272.465C153.312 273.707 153.395 274.961 153.535 276.227ZM209.996 298.445C209.996 297.883 210.02 297.32 210.066 296.758C210.113 296.195 210.137 295.609 210.137 295C210.137 294.25 210.09 293.512 209.996 292.785C209.926 292.035 209.844 291.285 209.75 290.535C209.656 289.785 209.562 289.023 209.469 288.25C209.398 287.477 209.363 286.691 209.363 285.895C209.363 284.629 209.305 283.375 209.188 282.133C209.094 280.891 208.988 279.637 208.871 278.371C208.754 277.105 208.637 275.828 208.52 274.539C208.426 273.227 208.367 271.891 208.344 270.531L208.273 263.113C207.523 263.137 206.703 263.207 205.812 263.324C204.922 263.418 204.008 263.535 203.07 263.676C202.156 263.793 201.219 263.898 200.258 263.992C199.32 264.086 198.43 264.133 197.586 264.133C196.039 264.133 194.926 263.957 194.246 263.605C193.59 263.23 193.238 262.668 193.191 261.918C193.121 260.91 193.25 260.09 193.578 259.457C193.906 258.824 194.34 258.332 194.879 257.98C195.418 257.605 196.027 257.348 196.707 257.207C197.41 257.066 198.09 256.996 198.746 256.996C202.215 256.996 205.707 256.926 209.223 256.785C212.762 256.645 216.406 256.574 220.156 256.574C220.695 256.574 221.234 256.539 221.773 256.469C222.312 256.375 222.852 256.281 223.391 256.188C223.953 256.094 224.504 256.012 225.043 255.941C225.605 255.848 226.18 255.801 226.766 255.801C227.328 255.801 227.832 255.93 228.277 256.188C228.723 256.445 229.109 256.785 229.438 257.207C229.766 257.605 230.012 258.074 230.176 258.613C230.363 259.129 230.457 259.656 230.457 260.195C230.457 260.523 230.352 260.91 230.141 261.355C229.93 261.777 229.648 262.188 229.297 262.586C228.945 262.984 228.547 263.324 228.102 263.605C227.656 263.863 227.211 263.992 226.766 263.992C226.227 263.992 225.734 263.91 225.289 263.746C224.844 263.559 224.422 263.359 224.023 263.148C223.648 262.914 223.297 262.715 222.969 262.551C222.641 262.363 222.336 262.27 222.055 262.27C221.82 262.27 221.363 262.281 220.684 262.305C220.027 262.305 219.301 262.316 218.504 262.34C217.73 262.363 216.98 262.398 216.254 262.445C215.551 262.492 215.023 262.551 214.672 262.621V263.395C214.672 263.77 214.672 264.355 214.672 265.152C214.695 265.926 214.707 267.051 214.707 268.527C214.707 270.895 214.789 273.262 214.953 275.629C215.141 277.973 215.387 280.352 215.691 282.766C215.832 285.062 215.938 287.359 216.008 289.656C216.102 291.953 216.312 294.297 216.641 296.688C216.664 296.875 216.734 297.18 216.852 297.602C216.969 298.023 217.086 298.48 217.203 298.973C217.32 299.441 217.426 299.898 217.52 300.344C217.637 300.789 217.695 301.117 217.695 301.328C217.695 301.867 217.66 302.324 217.59 302.699C217.52 303.051 217.367 303.344 217.133 303.578C216.898 303.812 216.559 303.988 216.113 304.105C215.668 304.223 215.082 304.293 214.355 304.316C213.324 304.363 212.516 304.234 211.93 303.93C211.344 303.625 210.91 303.203 210.629 302.664C210.348 302.102 210.172 301.457 210.102 300.73C210.031 300.004 209.996 299.242 209.996 298.445Z" fill="black"/>
<path d="M164.609 90.9375L129.383 186H116.375L151.531 94.3125H105.898V83.625H164.609V90.9375Z" fill="black"/>
</svg>
