<svg width="341" height="405" viewBox="0 0 341 405" fill="none" xmlns="http://www.w3.org/2000/svg">
<path d="M58.1075 105.424L228.582 6.99999L286.221 106.832" stroke="black" stroke-width="10"/>
<path d="M135.62 107.343L173.098 42.4284L333.197 134.861L231.83 310.433L211.975 298.97" stroke="black" stroke-width="10"/>
<rect x="19" y="106" width="193" height="193" stroke="black" stroke-width="10"/>
<path d="M24.5156 363.336C24.5156 362.961 24.6445 362.457 24.9023 361.824C25.1602 361.168 25.4883 360.582 25.8867 360.066C26.2852 359.551 26.7188 359.211 27.1875 359.047C27.6797 358.883 28.1484 359.094 28.5938 359.68C29.3672 361.086 30.0703 362.188 30.7031 362.984C31.3594 363.781 32.0391 364.379 32.7422 364.777C33.4453 365.152 34.2188 365.387 35.0625 365.48C35.9297 365.574 36.9609 365.621 38.1562 365.621C39.6094 365.621 41.0977 365.375 42.6211 364.883C44.1445 364.391 45.5273 363.77 46.7695 363.02C48.0352 362.27 49.0664 361.449 49.8633 360.559C50.6602 359.668 51.0586 358.836 51.0586 358.062C51.0586 357.5 50.8125 356.938 50.3203 356.375C49.8281 355.812 49.1484 355.273 48.2812 354.758C47.4375 354.242 46.4414 353.762 45.293 353.316C44.1445 352.871 42.9258 352.496 41.6367 352.191C40.1602 351.98 38.6484 351.746 37.1016 351.488C35.5547 351.207 34.043 350.879 32.5664 350.504C31.0898 350.105 29.707 349.613 28.418 349.027C27.1289 348.441 25.9922 347.727 25.0078 346.883C24.0234 346.039 23.25 345.043 22.6875 343.895C22.125 342.723 21.8438 341.34 21.8438 339.746C21.8438 337.918 22.125 336.219 22.6875 334.648C23.25 333.078 24.0117 331.648 24.9727 330.359C25.957 329.07 27.1055 327.934 28.418 326.949C29.7305 325.941 31.1367 325.098 32.6367 324.418C34.1602 323.738 35.7305 323.223 37.3477 322.871C38.9883 322.52 40.6172 322.344 42.2344 322.344C43.9219 322.344 45.4453 322.578 46.8047 323.047C48.1875 323.516 49.3594 324.148 50.3203 324.945C51.2812 325.742 52.0195 326.656 52.5352 327.688C53.0742 328.695 53.3438 329.75 53.3438 330.852C53.3438 331.438 53.332 332.105 53.3086 332.855C53.2852 333.605 53.1797 334.32 52.9922 335C52.8047 335.656 52.5117 336.219 52.1133 336.688C51.7148 337.156 51.1289 337.391 50.3555 337.391C49.8867 337.391 49.5234 337.297 49.2656 337.109C49.0078 336.922 48.8203 336.688 48.7031 336.406C48.5859 336.125 48.5156 335.82 48.4922 335.492C48.4688 335.164 48.457 334.859 48.457 334.578C48.457 333.336 48.293 332.316 47.9648 331.52C47.6367 330.723 47.1562 330.102 46.5234 329.656C45.9141 329.188 45.1523 328.871 44.2383 328.707C43.3477 328.52 42.3281 328.426 41.1797 328.426C40.3828 328.426 39.5156 328.566 38.5781 328.848C37.6406 329.129 36.6914 329.516 35.7305 330.008C34.7695 330.5 33.832 331.086 32.918 331.766C32.0273 332.422 31.2305 333.16 30.5273 333.98C29.8242 334.777 29.2617 335.633 28.8398 336.547C28.418 337.438 28.207 338.352 28.207 339.289C28.207 340.391 28.582 341.316 29.332 342.066C30.1055 342.793 31.1016 343.402 32.3203 343.895C33.5625 344.387 34.957 344.797 36.5039 345.125C38.0742 345.453 39.668 345.758 41.2852 346.039C42.5977 346.273 43.9102 346.543 45.2227 346.848C46.5586 347.152 47.8242 347.516 49.0195 347.938C50.2148 348.359 51.3281 348.863 52.3594 349.449C53.3906 350.035 54.2812 350.738 55.0312 351.559C55.8047 352.355 56.4023 353.281 56.8242 354.336C57.2695 355.391 57.4922 356.598 57.4922 357.957C57.4922 359.621 57.1172 361.109 56.3672 362.422C55.6406 363.734 54.6797 364.895 53.4844 365.902C52.2891 366.91 50.9414 367.777 49.4414 368.504C47.9648 369.23 46.4766 369.828 44.9766 370.297C43.4766 370.742 42.0352 371.07 40.6523 371.281C39.293 371.492 38.1445 371.598 37.207 371.598C36.4805 371.598 35.6602 371.562 34.7461 371.492C33.832 371.422 32.9062 371.281 31.9688 371.07C31.0312 370.883 30.1172 370.602 29.2266 370.227C28.3359 369.852 27.5391 369.359 26.8359 368.75C26.1328 368.141 25.5703 367.391 25.1484 366.5C24.7266 365.609 24.5156 364.555 24.5156 363.336ZM66.5273 347.059C66.5273 344.035 66.8555 341.316 67.5117 338.902C68.1914 336.488 69.1172 334.367 70.2891 332.539C71.4844 330.688 72.8906 329.105 74.5078 327.793C76.1484 326.48 77.918 325.402 79.8164 324.559C81.7148 323.715 83.707 323.105 85.793 322.73C87.9023 322.332 90.0234 322.133 92.1562 322.133C95.8359 322.133 99.1406 322.73 102.07 323.926C105 325.121 107.484 326.844 109.523 329.094C111.562 331.32 113.121 334.051 114.199 337.285C115.277 340.496 115.816 344.129 115.816 348.184C115.816 350.527 115.5 352.742 114.867 354.828C114.258 356.914 113.402 358.836 112.301 360.594C111.199 362.352 109.887 363.934 108.363 365.34C106.863 366.723 105.211 367.906 103.406 368.891C101.602 369.875 99.6914 370.625 97.6758 371.141C95.6602 371.656 93.6094 371.914 91.5234 371.914C89.2969 371.914 87.1289 371.562 85.0195 370.859C82.9336 370.156 80.9648 369.195 79.1133 367.977C77.2617 366.758 75.5625 365.34 74.0156 363.723C72.4688 362.105 71.1445 360.371 70.043 358.52C68.9414 356.668 68.0742 354.77 67.4414 352.824C66.832 350.855 66.5273 348.934 66.5273 347.059ZM72.9258 346.004C72.9258 347.598 73.1484 349.203 73.5938 350.82C74.0625 352.414 74.707 353.949 75.5273 355.426C76.3711 356.902 77.3555 358.285 78.4805 359.574C79.6055 360.84 80.8359 361.953 82.1719 362.914C83.5312 363.852 84.9609 364.602 86.4609 365.164C87.9609 365.703 89.4961 365.973 91.0664 365.973C93.5508 365.973 95.9062 365.574 98.1328 364.777C100.383 363.957 102.352 362.762 104.039 361.191C105.727 359.621 107.062 357.676 108.047 355.355C109.031 353.035 109.523 350.363 109.523 347.34C109.523 344.387 109.102 341.727 108.258 339.359C107.438 336.992 106.289 334.977 104.812 333.312C103.336 331.648 101.59 330.371 99.5742 329.48C97.5586 328.59 95.3672 328.145 93 328.145C90.4453 328.145 87.9609 328.508 85.5469 329.234C83.1562 329.961 81.0234 331.062 79.1484 332.539C77.2734 334.016 75.7617 335.879 74.6133 338.129C73.4883 340.355 72.9258 342.98 72.9258 346.004ZM128.613 366.113C128.613 365.434 128.672 364.766 128.789 364.109C128.906 363.453 128.965 362.762 128.965 362.035C128.965 361.52 128.906 360.805 128.789 359.891C128.695 358.953 128.578 357.898 128.438 356.727C128.297 355.555 128.133 354.301 127.945 352.965C127.758 351.605 127.594 350.258 127.453 348.922C127.312 347.562 127.184 346.238 127.066 344.949C126.973 343.66 126.926 342.488 126.926 341.434C126.926 340.52 126.938 339.488 126.961 338.34C126.984 337.168 127.066 336.02 127.207 334.895C127.371 333.746 127.617 332.691 127.945 331.73C128.297 330.746 128.789 329.973 129.422 329.41C131.859 327.277 134.496 325.578 137.332 324.312C140.168 323.047 143.25 322.414 146.578 322.414C148.195 322.414 149.801 322.625 151.395 323.047C152.988 323.469 154.43 324.125 155.719 325.016C157.008 325.906 158.051 327.055 158.848 328.461C159.645 329.844 160.043 331.496 160.043 333.418C160.043 334.848 159.727 336.102 159.094 337.18C158.484 338.258 157.711 339.195 156.773 339.992C155.836 340.766 154.805 341.434 153.68 341.996C152.578 342.535 151.523 342.98 150.516 343.332C151.523 343.355 152.625 343.52 153.82 343.824C155.016 344.105 156.176 344.48 157.301 344.949C158.426 345.418 159.445 345.957 160.359 346.566C161.273 347.176 161.953 347.82 162.398 348.5C163.266 349.883 163.945 351.371 164.438 352.965C164.953 354.559 165.328 356.258 165.562 358.062C165.82 359.867 165.973 361.766 166.02 363.758C166.09 365.75 166.125 367.836 166.125 370.016C166.125 370.531 165.984 371 165.703 371.422C165.445 371.844 165.129 372.207 164.754 372.512C164.379 372.816 163.969 373.051 163.523 373.215C163.102 373.402 162.738 373.496 162.434 373.496C161.73 373.496 161.168 373.355 160.746 373.074C160.348 372.816 160.043 372.453 159.832 371.984C159.621 371.516 159.48 370.977 159.41 370.367C159.363 369.734 159.34 369.066 159.34 368.363C159.34 367.637 159.387 366.91 159.48 366.184C159.598 365.434 159.656 364.59 159.656 363.652C159.656 362.949 159.633 362.199 159.586 361.402C159.539 360.582 159.457 359.785 159.34 359.012C159.246 358.215 159.117 357.453 158.953 356.727C158.789 355.977 158.59 355.309 158.355 354.723C157.746 353.293 156.867 352.145 155.719 351.277C154.594 350.387 153.316 349.695 151.887 349.203C150.48 348.711 149.004 348.383 147.457 348.219C145.91 348.055 144.422 347.973 142.992 347.973C142.641 347.973 142.066 348.031 141.27 348.148C140.496 348.266 139.664 348.43 138.773 348.641C137.883 348.852 137.016 349.109 136.172 349.414C135.352 349.719 134.719 350.059 134.273 350.434C134.273 351.629 134.332 352.906 134.449 354.266C134.566 355.602 134.719 356.961 134.906 358.344C135.094 359.727 135.316 361.086 135.574 362.422C135.832 363.734 136.09 364.965 136.348 366.113C136.371 366.23 136.383 366.336 136.383 366.43C136.406 366.523 136.418 366.629 136.418 366.746C136.418 367.215 136.301 367.648 136.066 368.047C135.832 368.445 135.516 368.785 135.117 369.066C134.742 369.348 134.297 369.57 133.781 369.734C133.266 369.875 132.715 369.945 132.129 369.945C131.66 369.945 131.203 369.828 130.758 369.594C130.336 369.359 129.961 369.066 129.633 368.715C129.328 368.34 129.082 367.93 128.895 367.484C128.707 367.016 128.613 366.559 128.613 366.113ZM133.535 343.227C134.191 343.203 135.141 343.074 136.383 342.84C137.625 342.582 138.984 342.242 140.461 341.82C141.961 341.398 143.484 340.906 145.031 340.344C146.602 339.781 148.02 339.172 149.285 338.516C150.574 337.859 151.617 337.168 152.414 336.441C153.234 335.691 153.645 334.941 153.645 334.191C153.645 332.949 153.422 331.941 152.977 331.168C152.555 330.371 151.992 329.75 151.289 329.305C150.586 328.859 149.789 328.555 148.898 328.391C148.031 328.227 147.164 328.145 146.297 328.145C145.5 328.145 144.621 328.215 143.66 328.355C142.699 328.496 141.738 328.719 140.777 329.023C139.816 329.305 138.879 329.656 137.965 330.078C137.074 330.5 136.277 330.98 135.574 331.52C134.871 332.059 134.309 332.668 133.887 333.348C133.465 334.027 133.254 334.754 133.254 335.527C133.254 336.91 133.266 338.223 133.289 339.465C133.312 340.707 133.395 341.961 133.535 343.227ZM189.996 365.445C189.996 364.883 190.02 364.32 190.066 363.758C190.113 363.195 190.137 362.609 190.137 362C190.137 361.25 190.09 360.512 189.996 359.785C189.926 359.035 189.844 358.285 189.75 357.535C189.656 356.785 189.562 356.023 189.469 355.25C189.398 354.477 189.363 353.691 189.363 352.895C189.363 351.629 189.305 350.375 189.188 349.133C189.094 347.891 188.988 346.637 188.871 345.371C188.754 344.105 188.637 342.828 188.52 341.539C188.426 340.227 188.367 338.891 188.344 337.531L188.273 330.113C187.523 330.137 186.703 330.207 185.812 330.324C184.922 330.418 184.008 330.535 183.07 330.676C182.156 330.793 181.219 330.898 180.258 330.992C179.32 331.086 178.43 331.133 177.586 331.133C176.039 331.133 174.926 330.957 174.246 330.605C173.59 330.23 173.238 329.668 173.191 328.918C173.121 327.91 173.25 327.09 173.578 326.457C173.906 325.824 174.34 325.332 174.879 324.98C175.418 324.605 176.027 324.348 176.707 324.207C177.41 324.066 178.09 323.996 178.746 323.996C182.215 323.996 185.707 323.926 189.223 323.785C192.762 323.645 196.406 323.574 200.156 323.574C200.695 323.574 201.234 323.539 201.773 323.469C202.312 323.375 202.852 323.281 203.391 323.188C203.953 323.094 204.504 323.012 205.043 322.941C205.605 322.848 206.18 322.801 206.766 322.801C207.328 322.801 207.832 322.93 208.277 323.188C208.723 323.445 209.109 323.785 209.438 324.207C209.766 324.605 210.012 325.074 210.176 325.613C210.363 326.129 210.457 326.656 210.457 327.195C210.457 327.523 210.352 327.91 210.141 328.355C209.93 328.777 209.648 329.188 209.297 329.586C208.945 329.984 208.547 330.324 208.102 330.605C207.656 330.863 207.211 330.992 206.766 330.992C206.227 330.992 205.734 330.91 205.289 330.746C204.844 330.559 204.422 330.359 204.023 330.148C203.648 329.914 203.297 329.715 202.969 329.551C202.641 329.363 202.336 329.27 202.055 329.27C201.82 329.27 201.363 329.281 200.684 329.305C200.027 329.305 199.301 329.316 198.504 329.34C197.73 329.363 196.98 329.398 196.254 329.445C195.551 329.492 195.023 329.551 194.672 329.621V330.395C194.672 330.77 194.672 331.355 194.672 332.152C194.695 332.926 194.707 334.051 194.707 335.527C194.707 337.895 194.789 340.262 194.953 342.629C195.141 344.973 195.387 347.352 195.691 349.766C195.832 352.062 195.938 354.359 196.008 356.656C196.102 358.953 196.312 361.297 196.641 363.688C196.664 363.875 196.734 364.18 196.852 364.602C196.969 365.023 197.086 365.48 197.203 365.973C197.32 366.441 197.426 366.898 197.52 367.344C197.637 367.789 197.695 368.117 197.695 368.328C197.695 368.867 197.66 369.324 197.59 369.699C197.52 370.051 197.367 370.344 197.133 370.578C196.898 370.812 196.559 370.988 196.113 371.105C195.668 371.223 195.082 371.293 194.355 371.316C193.324 371.363 192.516 371.234 191.93 370.93C191.344 370.625 190.91 370.203 190.629 369.664C190.348 369.102 190.172 368.457 190.102 367.73C190.031 367.004 189.996 366.242 189.996 365.445Z" fill="black"/>
<path d="M144.609 157.938L109.383 253H96.375L131.531 161.312H85.8984V150.625H144.609V157.938Z" fill="black"/>
</svg>
