<svg width="350" height="410" viewBox="0 0 350 410" fill="none" xmlns="http://www.w3.org/2000/svg">
<g filter="url(#filter0_d)">
<rect x="16.5" y="108.5" width="198" height="198" stroke="black" stroke-width="5"/>
</g>
<g filter="url(#filter1_d)">
<path d="M126.079 107.639L163.606 42.6388L338.303 143.5L236.803 319.303L215.137 306.794" stroke="black" stroke-width="5"/>
</g>
<g filter="url(#filter2_d)">
<path d="M44.9537 108.563L218.685 8.25897L276.323 108.091" stroke="black" stroke-width="5"/>
</g>
<path d="M24.5156 368.336C24.5156 367.961 24.6445 367.457 24.9023 366.824C25.1602 366.168 25.4883 365.582 25.8867 365.066C26.2852 364.551 26.7188 364.211 27.1875 364.047C27.6797 363.883 28.1484 364.094 28.5938 364.68C29.3672 366.086 30.0703 367.188 30.7031 367.984C31.3594 368.781 32.0391 369.379 32.7422 369.777C33.4453 370.152 34.2188 370.387 35.0625 370.48C35.9297 370.574 36.9609 370.621 38.1562 370.621C39.6094 370.621 41.0977 370.375 42.6211 369.883C44.1445 369.391 45.5273 368.77 46.7695 368.02C48.0352 367.27 49.0664 366.449 49.8633 365.559C50.6602 364.668 51.0586 363.836 51.0586 363.062C51.0586 362.5 50.8125 361.938 50.3203 361.375C49.8281 360.812 49.1484 360.273 48.2812 359.758C47.4375 359.242 46.4414 358.762 45.293 358.316C44.1445 357.871 42.9258 357.496 41.6367 357.191C40.1602 356.98 38.6484 356.746 37.1016 356.488C35.5547 356.207 34.043 355.879 32.5664 355.504C31.0898 355.105 29.707 354.613 28.418 354.027C27.1289 353.441 25.9922 352.727 25.0078 351.883C24.0234 351.039 23.25 350.043 22.6875 348.895C22.125 347.723 21.8438 346.34 21.8438 344.746C21.8438 342.918 22.125 341.219 22.6875 339.648C23.25 338.078 24.0117 336.648 24.9727 335.359C25.957 334.07 27.1055 332.934 28.418 331.949C29.7305 330.941 31.1367 330.098 32.6367 329.418C34.1602 328.738 35.7305 328.223 37.3477 327.871C38.9883 327.52 40.6172 327.344 42.2344 327.344C43.9219 327.344 45.4453 327.578 46.8047 328.047C48.1875 328.516 49.3594 329.148 50.3203 329.945C51.2812 330.742 52.0195 331.656 52.5352 332.688C53.0742 333.695 53.3438 334.75 53.3438 335.852C53.3438 336.438 53.332 337.105 53.3086 337.855C53.2852 338.605 53.1797 339.32 52.9922 340C52.8047 340.656 52.5117 341.219 52.1133 341.688C51.7148 342.156 51.1289 342.391 50.3555 342.391C49.8867 342.391 49.5234 342.297 49.2656 342.109C49.0078 341.922 48.8203 341.688 48.7031 341.406C48.5859 341.125 48.5156 340.82 48.4922 340.492C48.4688 340.164 48.457 339.859 48.457 339.578C48.457 338.336 48.293 337.316 47.9648 336.52C47.6367 335.723 47.1562 335.102 46.5234 334.656C45.9141 334.188 45.1523 333.871 44.2383 333.707C43.3477 333.52 42.3281 333.426 41.1797 333.426C40.3828 333.426 39.5156 333.566 38.5781 333.848C37.6406 334.129 36.6914 334.516 35.7305 335.008C34.7695 335.5 33.832 336.086 32.918 336.766C32.0273 337.422 31.2305 338.16 30.5273 338.98C29.8242 339.777 29.2617 340.633 28.8398 341.547C28.418 342.438 28.207 343.352 28.207 344.289C28.207 345.391 28.582 346.316 29.332 347.066C30.1055 347.793 31.1016 348.402 32.3203 348.895C33.5625 349.387 34.957 349.797 36.5039 350.125C38.0742 350.453 39.668 350.758 41.2852 351.039C42.5977 351.273 43.9102 351.543 45.2227 351.848C46.5586 352.152 47.8242 352.516 49.0195 352.938C50.2148 353.359 51.3281 353.863 52.3594 354.449C53.3906 355.035 54.2812 355.738 55.0312 356.559C55.8047 357.355 56.4023 358.281 56.8242 359.336C57.2695 360.391 57.4922 361.598 57.4922 362.957C57.4922 364.621 57.1172 366.109 56.3672 367.422C55.6406 368.734 54.6797 369.895 53.4844 370.902C52.2891 371.91 50.9414 372.777 49.4414 373.504C47.9648 374.23 46.4766 374.828 44.9766 375.297C43.4766 375.742 42.0352 376.07 40.6523 376.281C39.293 376.492 38.1445 376.598 37.207 376.598C36.4805 376.598 35.6602 376.562 34.7461 376.492C33.832 376.422 32.9062 376.281 31.9688 376.07C31.0312 375.883 30.1172 375.602 29.2266 375.227C28.3359 374.852 27.5391 374.359 26.8359 373.75C26.1328 373.141 25.5703 372.391 25.1484 371.5C24.7266 370.609 24.5156 369.555 24.5156 368.336ZM66.5273 352.059C66.5273 349.035 66.8555 346.316 67.5117 343.902C68.1914 341.488 69.1172 339.367 70.2891 337.539C71.4844 335.688 72.8906 334.105 74.5078 332.793C76.1484 331.48 77.918 330.402 79.8164 329.559C81.7148 328.715 83.707 328.105 85.793 327.73C87.9023 327.332 90.0234 327.133 92.1562 327.133C95.8359 327.133 99.1406 327.73 102.07 328.926C105 330.121 107.484 331.844 109.523 334.094C111.562 336.32 113.121 339.051 114.199 342.285C115.277 345.496 115.816 349.129 115.816 353.184C115.816 355.527 115.5 357.742 114.867 359.828C114.258 361.914 113.402 363.836 112.301 365.594C111.199 367.352 109.887 368.934 108.363 370.34C106.863 371.723 105.211 372.906 103.406 373.891C101.602 374.875 99.6914 375.625 97.6758 376.141C95.6602 376.656 93.6094 376.914 91.5234 376.914C89.2969 376.914 87.1289 376.562 85.0195 375.859C82.9336 375.156 80.9648 374.195 79.1133 372.977C77.2617 371.758 75.5625 370.34 74.0156 368.723C72.4688 367.105 71.1445 365.371 70.043 363.52C68.9414 361.668 68.0742 359.77 67.4414 357.824C66.832 355.855 66.5273 353.934 66.5273 352.059ZM72.9258 351.004C72.9258 352.598 73.1484 354.203 73.5938 355.82C74.0625 357.414 74.707 358.949 75.5273 360.426C76.3711 361.902 77.3555 363.285 78.4805 364.574C79.6055 365.84 80.8359 366.953 82.1719 367.914C83.5312 368.852 84.9609 369.602 86.4609 370.164C87.9609 370.703 89.4961 370.973 91.0664 370.973C93.5508 370.973 95.9062 370.574 98.1328 369.777C100.383 368.957 102.352 367.762 104.039 366.191C105.727 364.621 107.062 362.676 108.047 360.355C109.031 358.035 109.523 355.363 109.523 352.34C109.523 349.387 109.102 346.727 108.258 344.359C107.438 341.992 106.289 339.977 104.812 338.312C103.336 336.648 101.59 335.371 99.5742 334.48C97.5586 333.59 95.3672 333.145 93 333.145C90.4453 333.145 87.9609 333.508 85.5469 334.234C83.1562 334.961 81.0234 336.062 79.1484 337.539C77.2734 339.016 75.7617 340.879 74.6133 343.129C73.4883 345.355 72.9258 347.98 72.9258 351.004ZM128.613 371.113C128.613 370.434 128.672 369.766 128.789 369.109C128.906 368.453 128.965 367.762 128.965 367.035C128.965 366.52 128.906 365.805 128.789 364.891C128.695 363.953 128.578 362.898 128.438 361.727C128.297 360.555 128.133 359.301 127.945 357.965C127.758 356.605 127.594 355.258 127.453 353.922C127.312 352.562 127.184 351.238 127.066 349.949C126.973 348.66 126.926 347.488 126.926 346.434C126.926 345.52 126.938 344.488 126.961 343.34C126.984 342.168 127.066 341.02 127.207 339.895C127.371 338.746 127.617 337.691 127.945 336.73C128.297 335.746 128.789 334.973 129.422 334.41C131.859 332.277 134.496 330.578 137.332 329.312C140.168 328.047 143.25 327.414 146.578 327.414C148.195 327.414 149.801 327.625 151.395 328.047C152.988 328.469 154.43 329.125 155.719 330.016C157.008 330.906 158.051 332.055 158.848 333.461C159.645 334.844 160.043 336.496 160.043 338.418C160.043 339.848 159.727 341.102 159.094 342.18C158.484 343.258 157.711 344.195 156.773 344.992C155.836 345.766 154.805 346.434 153.68 346.996C152.578 347.535 151.523 347.98 150.516 348.332C151.523 348.355 152.625 348.52 153.82 348.824C155.016 349.105 156.176 349.48 157.301 349.949C158.426 350.418 159.445 350.957 160.359 351.566C161.273 352.176 161.953 352.82 162.398 353.5C163.266 354.883 163.945 356.371 164.438 357.965C164.953 359.559 165.328 361.258 165.562 363.062C165.82 364.867 165.973 366.766 166.02 368.758C166.09 370.75 166.125 372.836 166.125 375.016C166.125 375.531 165.984 376 165.703 376.422C165.445 376.844 165.129 377.207 164.754 377.512C164.379 377.816 163.969 378.051 163.523 378.215C163.102 378.402 162.738 378.496 162.434 378.496C161.73 378.496 161.168 378.355 160.746 378.074C160.348 377.816 160.043 377.453 159.832 376.984C159.621 376.516 159.48 375.977 159.41 375.367C159.363 374.734 159.34 374.066 159.34 373.363C159.34 372.637 159.387 371.91 159.48 371.184C159.598 370.434 159.656 369.59 159.656 368.652C159.656 367.949 159.633 367.199 159.586 366.402C159.539 365.582 159.457 364.785 159.34 364.012C159.246 363.215 159.117 362.453 158.953 361.727C158.789 360.977 158.59 360.309 158.355 359.723C157.746 358.293 156.867 357.145 155.719 356.277C154.594 355.387 153.316 354.695 151.887 354.203C150.48 353.711 149.004 353.383 147.457 353.219C145.91 353.055 144.422 352.973 142.992 352.973C142.641 352.973 142.066 353.031 141.27 353.148C140.496 353.266 139.664 353.43 138.773 353.641C137.883 353.852 137.016 354.109 136.172 354.414C135.352 354.719 134.719 355.059 134.273 355.434C134.273 356.629 134.332 357.906 134.449 359.266C134.566 360.602 134.719 361.961 134.906 363.344C135.094 364.727 135.316 366.086 135.574 367.422C135.832 368.734 136.09 369.965 136.348 371.113C136.371 371.23 136.383 371.336 136.383 371.43C136.406 371.523 136.418 371.629 136.418 371.746C136.418 372.215 136.301 372.648 136.066 373.047C135.832 373.445 135.516 373.785 135.117 374.066C134.742 374.348 134.297 374.57 133.781 374.734C133.266 374.875 132.715 374.945 132.129 374.945C131.66 374.945 131.203 374.828 130.758 374.594C130.336 374.359 129.961 374.066 129.633 373.715C129.328 373.34 129.082 372.93 128.895 372.484C128.707 372.016 128.613 371.559 128.613 371.113ZM133.535 348.227C134.191 348.203 135.141 348.074 136.383 347.84C137.625 347.582 138.984 347.242 140.461 346.82C141.961 346.398 143.484 345.906 145.031 345.344C146.602 344.781 148.02 344.172 149.285 343.516C150.574 342.859 151.617 342.168 152.414 341.441C153.234 340.691 153.645 339.941 153.645 339.191C153.645 337.949 153.422 336.941 152.977 336.168C152.555 335.371 151.992 334.75 151.289 334.305C150.586 333.859 149.789 333.555 148.898 333.391C148.031 333.227 147.164 333.145 146.297 333.145C145.5 333.145 144.621 333.215 143.66 333.355C142.699 333.496 141.738 333.719 140.777 334.023C139.816 334.305 138.879 334.656 137.965 335.078C137.074 335.5 136.277 335.98 135.574 336.52C134.871 337.059 134.309 337.668 133.887 338.348C133.465 339.027 133.254 339.754 133.254 340.527C133.254 341.91 133.266 343.223 133.289 344.465C133.312 345.707 133.395 346.961 133.535 348.227ZM189.996 370.445C189.996 369.883 190.02 369.32 190.066 368.758C190.113 368.195 190.137 367.609 190.137 367C190.137 366.25 190.09 365.512 189.996 364.785C189.926 364.035 189.844 363.285 189.75 362.535C189.656 361.785 189.562 361.023 189.469 360.25C189.398 359.477 189.363 358.691 189.363 357.895C189.363 356.629 189.305 355.375 189.188 354.133C189.094 352.891 188.988 351.637 188.871 350.371C188.754 349.105 188.637 347.828 188.52 346.539C188.426 345.227 188.367 343.891 188.344 342.531L188.273 335.113C187.523 335.137 186.703 335.207 185.812 335.324C184.922 335.418 184.008 335.535 183.07 335.676C182.156 335.793 181.219 335.898 180.258 335.992C179.32 336.086 178.43 336.133 177.586 336.133C176.039 336.133 174.926 335.957 174.246 335.605C173.59 335.23 173.238 334.668 173.191 333.918C173.121 332.91 173.25 332.09 173.578 331.457C173.906 330.824 174.34 330.332 174.879 329.98C175.418 329.605 176.027 329.348 176.707 329.207C177.41 329.066 178.09 328.996 178.746 328.996C182.215 328.996 185.707 328.926 189.223 328.785C192.762 328.645 196.406 328.574 200.156 328.574C200.695 328.574 201.234 328.539 201.773 328.469C202.312 328.375 202.852 328.281 203.391 328.188C203.953 328.094 204.504 328.012 205.043 327.941C205.605 327.848 206.18 327.801 206.766 327.801C207.328 327.801 207.832 327.93 208.277 328.188C208.723 328.445 209.109 328.785 209.438 329.207C209.766 329.605 210.012 330.074 210.176 330.613C210.363 331.129 210.457 331.656 210.457 332.195C210.457 332.523 210.352 332.91 210.141 333.355C209.93 333.777 209.648 334.188 209.297 334.586C208.945 334.984 208.547 335.324 208.102 335.605C207.656 335.863 207.211 335.992 206.766 335.992C206.227 335.992 205.734 335.91 205.289 335.746C204.844 335.559 204.422 335.359 204.023 335.148C203.648 334.914 203.297 334.715 202.969 334.551C202.641 334.363 202.336 334.27 202.055 334.27C201.82 334.27 201.363 334.281 200.684 334.305C200.027 334.305 199.301 334.316 198.504 334.34C197.73 334.363 196.98 334.398 196.254 334.445C195.551 334.492 195.023 334.551 194.672 334.621V335.395C194.672 335.77 194.672 336.355 194.672 337.152C194.695 337.926 194.707 339.051 194.707 340.527C194.707 342.895 194.789 345.262 194.953 347.629C195.141 349.973 195.387 352.352 195.691 354.766C195.832 357.062 195.938 359.359 196.008 361.656C196.102 363.953 196.312 366.297 196.641 368.688C196.664 368.875 196.734 369.18 196.852 369.602C196.969 370.023 197.086 370.48 197.203 370.973C197.32 371.441 197.426 371.898 197.52 372.344C197.637 372.789 197.695 373.117 197.695 373.328C197.695 373.867 197.66 374.324 197.59 374.699C197.52 375.051 197.367 375.344 197.133 375.578C196.898 375.812 196.559 375.988 196.113 376.105C195.668 376.223 195.082 376.293 194.355 376.316C193.324 376.363 192.516 376.234 191.93 375.93C191.344 375.625 190.91 375.203 190.629 374.664C190.348 374.102 190.172 373.457 190.102 372.73C190.031 372.004 189.996 371.242 189.996 370.445Z" fill="black"/>
<path d="M144.609 162.938L109.383 258H96.375L131.531 166.312H85.8984V155.625H144.609V162.938Z" fill="black"/>
<defs>
<filter id="filter0_d" x="10" y="106" width="211" height="211" filterUnits="userSpaceOnUse" color-interpolation-filters="sRGB">
<feFlood flood-opacity="0" result="BackgroundImageFix"/>
<feColorMatrix in="SourceAlpha" type="matrix" values="0 0 0 0 0 0 0 0 0 0 0 0 0 0 0 0 0 0 127 0"/>
<feOffset dy="4"/>
<feGaussianBlur stdDeviation="2"/>
<feColorMatrix type="matrix" values="0 0 0 0 0 0 0 0 0 0 0 0 0 0 0 0 0 0 0.25 0"/>
<feBlend mode="normal" in2="BackgroundImageFix" result="effect1_dropShadow"/>
<feBlend mode="normal" in="SourceGraphic" in2="effect1_dropShadow" result="shape"/>
</filter>
<filter id="filter1_d" x="50.6914" y="35.2237" width="299.027" height="299.494" filterUnits="userSpaceOnUse" color-interpolation-filters="sRGB">
<feFlood flood-opacity="0" result="BackgroundImageFix"/>
<feColorMatrix in="SourceAlpha" type="matrix" values="0 0 0 0 0 0 0 0 0 0 0 0 0 0 0 0 0 0 127 0"/>
<feOffset dy="4"/>
<feGaussianBlur stdDeviation="4"/>
<feColorMatrix type="matrix" values="0 0 0 0 0 0 0 0 0 0 0 0 0 0 0 0 0 0 0.25 0"/>
<feBlend mode="normal" in2="BackgroundImageFix" result="effect1_dropShadow"/>
<feBlend mode="normal" in="SourceGraphic" in2="effect1_dropShadow" result="shape"/>
</filter>
<filter id="filter2_d" x="35.7037" y="0.843903" width="250.784" height="219.551" filterUnits="userSpaceOnUse" color-interpolation-filters="sRGB">
<feFlood flood-opacity="0" result="BackgroundImageFix"/>
<feColorMatrix in="SourceAlpha" type="matrix" values="0 0 0 0 0 0 0 0 0 0 0 0 0 0 0 0 0 0 127 0"/>
<feOffset dy="4"/>
<feGaussianBlur stdDeviation="4"/>
<feColorMatrix type="matrix" values="0 0 0 0 0 0 0 0 0 0 0 0 0 0 0 0 0 0 0.25 0"/>
<feBlend mode="normal" in2="BackgroundImageFix" result="effect1_dropShadow"/>
<feBlend mode="normal" in="SourceGraphic" in2="effect1_dropShadow" result="shape"/>
</filter>
</defs>
</svg>
