<svg width="2378" height="2186" viewBox="0 0 2378 2186" fill="none" xmlns="http://www.w3.org/2000/svg">
<rect x="165.047" y="2.12013" width="223.08" height="223.08" transform="rotate(46.9158 165.047 2.12013)" stroke="#E4E6EB" stroke-opacity="0.25" stroke-width="3"/>
<rect x="481.843" y="2.11059" width="223.08" height="223.08" transform="rotate(39.2341 481.843 2.11059)" stroke="#E4E6EB" stroke-opacity="0.25" stroke-width="3"/>
<rect x="799.306" y="1.77325" width="223.08" height="223.08" transform="rotate(11.7114 799.306 1.77325)" stroke="#E4E6EB" stroke-opacity="0.25" stroke-width="3"/>
<rect x="1114.58" y="2.12013" width="223.08" height="223.08" transform="rotate(46.9158 1114.58 2.12013)" stroke="#E4E6EB" stroke-opacity="0.25" stroke-width="3"/>
<rect x="1431.38" y="2.11059" width="223.08" height="223.08" transform="rotate(39.2341 1431.38 2.11059)" stroke="#E4E6EB" stroke-opacity="0.25" stroke-width="3"/>
<rect x="1747.89" y="2.11059" width="223.08" height="223.08" transform="rotate(39.2341 1747.89 2.11059)" stroke="#E4E6EB" stroke-opacity="0.25" stroke-width="3"/>
<rect x="2065.13" y="1.90371" width="223.08" height="223.08" transform="rotate(18.8206 2065.13 1.90371)" stroke="#E4E6EB" stroke-opacity="0.25" stroke-width="3"/>
<rect x="167.198" y="316.929" width="223.08" height="223.08" transform="rotate(-33.6798 167.198 316.929)" stroke="#E4E6EB" stroke-opacity="0.25" stroke-width="3"/>
<rect x="483.497" y="317.519" width="223.08" height="223.08" transform="rotate(-16.6777 483.497 317.519)" stroke="#E4E6EB" stroke-opacity="0.25" stroke-width="3"/>
<rect x="798.355" y="318.623" width="223.08" height="223.08" transform="rotate(39.2341 798.355 318.623)" stroke="#E4E6EB" stroke-opacity="0.25" stroke-width="3"/>
<rect x="1116.52" y="317.519" width="223.08" height="223.08" transform="rotate(-16.6777 1116.52 317.519)" stroke="#E4E6EB" stroke-opacity="0.25" stroke-width="3"/>
<rect x="1432.1" y="318.416" width="223.08" height="223.08" transform="rotate(18.8206 1432.1 318.416)" stroke="#E4E6EB" stroke-opacity="0.25" stroke-width="3"/>
<rect x="1748.61" y="318.416" width="223.08" height="223.08" transform="rotate(18.8206 1748.61 318.416)" stroke="#E4E6EB" stroke-opacity="0.25" stroke-width="3"/>
<rect x="2064.92" y="318.503" width="223.08" height="223.08" transform="rotate(24.758 2064.92 318.503)" stroke="#E4E6EB" stroke-opacity="0.25" stroke-width="3"/>
<rect x="166.985" y="634.031" width="223.08" height="223.08" transform="rotate(-16.6777 166.985 634.031)" stroke="#E4E6EB" stroke-opacity="0.25" stroke-width="3"/>
<rect x="482.364" y="635.015" width="223.08" height="223.08" transform="rotate(24.758 482.364 635.015)" stroke="#E4E6EB" stroke-opacity="0.25" stroke-width="3"/>
<rect x="799.306" y="634.798" width="223.08" height="223.08" transform="rotate(11.7114 799.306 634.798)" stroke="#E4E6EB" stroke-opacity="0.25" stroke-width="3"/>
<rect x="1115.82" y="634.798" width="223.08" height="223.08" transform="rotate(11.7114 1115.82 634.798)" stroke="#E4E6EB" stroke-opacity="0.25" stroke-width="3"/>
<rect x="1433.03" y="634.031" width="223.08" height="223.08" transform="rotate(-16.6777 1433.03 634.031)" stroke="#E4E6EB" stroke-opacity="0.25" stroke-width="3"/>
<rect x="1748.41" y="635.015" width="223.08" height="223.08" transform="rotate(24.758 1748.41 635.015)" stroke="#E4E6EB" stroke-opacity="0.25" stroke-width="3"/>
<rect x="2064.12" y="635.144" width="223.08" height="223.08" transform="rotate(46.9158 2064.12 635.144)" stroke="#E4E6EB" stroke-opacity="0.25" stroke-width="3"/>
<rect x="165.852" y="951.527" width="223.08" height="223.08" transform="rotate(24.758 165.852 951.527)" stroke="#E4E6EB" stroke-opacity="0.25" stroke-width="3"/>
<rect x="483.71" y="949.953" width="223.08" height="223.08" transform="rotate(-33.6798 483.71 949.953)" stroke="#E4E6EB" stroke-opacity="0.25" stroke-width="3"/>
<rect x="800.222" y="949.953" width="223.08" height="223.08" transform="rotate(-33.6798 800.222 949.953)" stroke="#E4E6EB" stroke-opacity="0.25" stroke-width="3"/>
<rect x="1114.58" y="951.656" width="223.08" height="223.08" transform="rotate(46.9158 1114.58 951.656)" stroke="#E4E6EB" stroke-opacity="0.25" stroke-width="3"/>
<rect x="1433.03" y="950.543" width="223.08" height="223.08" transform="rotate(-16.6777 1433.03 950.543)" stroke="#E4E6EB" stroke-opacity="0.25" stroke-width="3"/>
<rect x="1748.84" y="951.309" width="223.08" height="223.08" transform="rotate(11.7114 1748.84 951.309)" stroke="#E4E6EB" stroke-opacity="0.25" stroke-width="3"/>
<rect x="2065.13" y="951.44" width="223.08" height="223.08" transform="rotate(18.8206 2065.13 951.44)" stroke="#E4E6EB" stroke-opacity="0.25" stroke-width="3"/>
<rect x="166.054" y="1267.95" width="223.08" height="223.08" transform="rotate(18.8206 166.054 1267.95)" stroke="#E4E6EB" stroke-opacity="0.25" stroke-width="3"/>
<rect x="481.559" y="1268.17" width="223.08" height="223.08" transform="rotate(46.9158 481.559 1268.17)" stroke="#E4E6EB" stroke-opacity="0.25" stroke-width="3"/>
<rect x="799.078" y="1267.95" width="223.08" height="223.08" transform="rotate(18.8206 799.078 1267.95)" stroke="#E4E6EB" stroke-opacity="0.25" stroke-width="3"/>
<rect x="1114.87" y="1268.16" width="223.08" height="223.08" transform="rotate(39.2341 1114.87 1268.16)" stroke="#E4E6EB" stroke-opacity="0.25" stroke-width="3"/>
<rect x="1433.25" y="1266.46" width="223.08" height="223.08" transform="rotate(-33.6798 1433.25 1266.46)" stroke="#E4E6EB" stroke-opacity="0.25" stroke-width="3"/>
<rect x="1748.41" y="1268.04" width="223.08" height="223.08" transform="rotate(24.758 1748.41 1268.04)" stroke="#E4E6EB" stroke-opacity="0.25" stroke-width="3"/>
<rect x="2066.06" y="1267.06" width="223.08" height="223.08" transform="rotate(-16.6777 2066.06 1267.06)" stroke="#E4E6EB" stroke-opacity="0.25" stroke-width="3"/>
<rect x="165.331" y="1584.67" width="223.08" height="223.08" transform="rotate(39.2341 165.331 1584.67)" stroke="#E4E6EB" stroke-opacity="0.25" stroke-width="3"/>
<rect x="481.843" y="1584.67" width="223.08" height="223.08" transform="rotate(39.2341 481.843 1584.67)" stroke="#E4E6EB" stroke-opacity="0.25" stroke-width="3"/>
<rect x="798.071" y="1584.68" width="223.08" height="223.08" transform="rotate(46.9158 798.071 1584.68)" stroke="#E4E6EB" stroke-opacity="0.25" stroke-width="3"/>
<rect x="1115.39" y="1584.55" width="223.08" height="223.08" transform="rotate(24.758 1115.39 1584.55)" stroke="#E4E6EB" stroke-opacity="0.25" stroke-width="3"/>
<rect x="1433.25" y="1582.98" width="223.08" height="223.08" transform="rotate(-33.6798 1433.25 1582.98)" stroke="#E4E6EB" stroke-opacity="0.25" stroke-width="3"/>
<rect x="1747.61" y="1584.68" width="223.08" height="223.08" transform="rotate(46.9158 1747.61 1584.68)" stroke="#E4E6EB" stroke-opacity="0.25" stroke-width="3"/>
<rect x="2064.92" y="1584.55" width="223.08" height="223.08" transform="rotate(24.758 2064.92 1584.55)" stroke="#E4E6EB" stroke-opacity="0.25" stroke-width="3"/>
<rect x="166.282" y="1900.85" width="223.08" height="223.08" transform="rotate(11.7114 166.282 1900.85)" stroke="#E4E6EB" stroke-opacity="0.25" stroke-width="3"/>
<rect x="483.497" y="1900.08" width="223.08" height="223.08" transform="rotate(-16.6777 483.497 1900.08)" stroke="#E4E6EB" stroke-opacity="0.25" stroke-width="3"/>
<rect x="799.078" y="1900.98" width="223.08" height="223.08" transform="rotate(18.8206 799.078 1900.98)" stroke="#E4E6EB" stroke-opacity="0.25" stroke-width="3"/>
<rect x="1115.82" y="1900.85" width="223.08" height="223.08" transform="rotate(11.7114 1115.82 1900.85)" stroke="#E4E6EB" stroke-opacity="0.25" stroke-width="3"/>
<rect x="1432.33" y="1900.85" width="223.08" height="223.08" transform="rotate(11.7114 1432.33 1900.85)" stroke="#E4E6EB" stroke-opacity="0.25" stroke-width="3"/>
<rect x="1749.76" y="1899.49" width="223.08" height="223.08" transform="rotate(-33.6798 1749.76 1899.49)" stroke="#E4E6EB" stroke-opacity="0.25" stroke-width="3"/>
<rect x="2066.27" y="1899.49" width="223.08" height="223.08" transform="rotate(-33.6798 2066.27 1899.49)" stroke="#E4E6EB" stroke-opacity="0.25" stroke-width="3"/>
</svg>
